<svg width="28" height="18" viewBox="0 0 28 18" fill="none" xmlns="http://www.w3.org/2000/svg">
<path d="M3.87236 0C1.73371 0 0 1.53529 0 3.42915V14.5079C0 16.4018 1.73371 17.9371 3.87236 17.9371H16.3858C18.5244 17.9371 20.2581 16.4018 20.2581 14.5079V12.8416L25.6688 16.1248C26.6572 16.7246 28 16.0978 28 15.0368V2.89992C28 1.83906 26.6575 1.21232 25.6691 1.81173L20.2581 5.09329V3.42915C20.2581 1.53529 18.5244 0 16.3858 0H3.87236ZM20.2581 10.9231V7.01151L26.2128 3.40027V14.5363L20.2581 10.9231ZM18.4709 3.42915V14.5079C18.4709 15.5277 17.5372 16.3544 16.3858 16.3544H3.87236C2.72078 16.3544 1.78724 15.5277 1.78724 14.5079V3.42915C1.78724 2.40937 2.72078 1.58269 3.87236 1.58269H16.3858C17.5374 1.58269 18.4709 2.40937 18.4709 3.42915Z" fill="#212121"/>
</svg>
