<svg width="28" height="28" viewBox="0 0 28 28" fill="none" xmlns="http://www.w3.org/2000/svg">
<path d="M24.8226 5.2668C24.2484 5.84102 23.3132 5.84102 22.7335 5.2668C22.1593 4.69258 22.1593 3.75742 22.7335 3.17773C23.3078 2.60352 24.2429 2.60352 24.8226 3.17773C25.3968 3.75742 25.3968 4.69258 24.8226 5.2668ZM22.6242 12.7098C21.8476 14.673 20.2015 16.4777 18.6976 17.9816C16.9749 19.7043 16.3788 21.941 16.2093 23.6855L4.30931 11.7855C6.05384 11.616 8.29056 11.0199 10.0132 9.29727C11.5171 7.79336 13.3218 6.14727 15.2851 5.3707C17.5109 4.49023 19.3976 4.9332 21.2296 6.76523C23.0617 8.59727 23.5046 10.484 22.6242 12.7098ZM6.82494 21.1754C5.65463 20.0051 5.4851 18.2004 6.33275 16.8551L11.1507 21.673C9.79447 22.5152 7.99525 22.3512 6.82494 21.1754ZM26.3374 1.66289C24.921 0.246484 22.6296 0.246484 21.2187 1.66289C20.7156 2.16602 20.3929 2.78398 20.2453 3.4293C19.6984 3.17227 19.1351 2.9918 18.5609 2.88789C17.2593 2.65273 15.8921 2.8168 14.4976 3.36367C12.1679 4.28242 10.1554 6.10898 8.49291 7.77148C6.03197 10.2324 1.88666 9.62539 1.84838 9.61445C1.389 9.53789 0.929626 9.77305 0.716345 10.1887C0.503064 10.6043 0.585095 11.1129 0.91322 11.441L4.76869 15.2965C3.09525 17.5113 3.26478 20.6832 5.28822 22.7012C7.30619 24.7191 10.4781 24.8941 12.6929 23.2207L16.5484 27.0762C16.8765 27.4043 17.3851 27.4863 17.8007 27.273C18.2163 27.0598 18.4515 26.6059 18.3749 26.141C18.3749 26.1301 18.2163 25.0801 18.3695 23.7293C18.5718 21.9465 19.1953 20.5191 20.2179 19.4965C21.8804 17.834 23.707 15.8215 24.6257 13.4918C25.1781 12.0973 25.3367 10.7301 25.1015 9.42851C24.9976 8.8543 24.8171 8.29102 24.5601 7.74414C25.2109 7.60195 25.8234 7.27383 26.3265 6.7707C27.7538 5.3707 27.7538 3.0793 26.3374 1.66289Z" fill="black"/>
</svg>
