<svg width="28" height="28" viewBox="0 0 28 28" fill="none" xmlns="http://www.w3.org/2000/svg">
<path d="M23.0781 13.1043C24.097 11.8835 24.6983 10.2194 24.6983 8.44477C24.6983 4.7777 22.1499 1.79419 19.0178 1.79419C16.8449 1.79419 14.9548 3.23083 14.0001 5.33473C13.0455 3.23083 11.1554 1.79419 8.98254 1.79419C5.8501 1.79419 3.30202 4.7777 3.30202 8.44477C3.30202 10.2235 3.90268 11.885 4.92191 13.104C3.1403 13.9417 0 15.5128 0 20.2427V21.988H1.74526H5.35822C5.14385 22.6997 5.01703 23.5165 5.01703 24.4607V26.2059H6.76228H13.9481H14.0508H21.2366H22.9818V24.4607C22.9818 23.5165 22.855 22.6997 22.6406 21.988H26.2547H28V20.2427C28 15.5131 24.8597 13.942 23.0781 13.1043ZM6.17268 20.2427H1.74526C1.74526 14.9874 6.36058 14.9889 7.38476 13.6148L7.50198 12.9883C6.06302 12.2587 5.04728 10.501 5.04728 8.44448C5.04728 5.73556 6.8094 3.53915 8.98254 3.53915C10.5219 3.53915 11.8506 4.6439 12.4966 6.24983C10.0916 7.02355 8.31905 9.60479 8.31905 12.6625C8.31905 14.4412 8.91971 16.1027 9.93894 17.3214C8.84815 17.8345 7.2495 18.6237 6.17268 20.2427ZM14.0508 24.4607H13.9481H6.76228C6.76228 19.2057 11.3776 19.2069 12.4018 17.8328L12.519 17.2062C11.08 16.4767 10.0643 14.719 10.0643 12.6625C10.0643 9.95355 11.8264 7.75714 13.9996 7.75714C16.1727 7.75714 17.9348 9.95355 17.9348 12.6625C17.9348 14.7009 16.9371 16.4482 15.5174 17.1888L15.6509 17.9011C16.7745 19.2086 21.2363 19.2939 21.2363 24.4607H14.0508ZM21.8262 20.2427C20.7493 18.624 19.1504 17.8348 18.0599 17.322C19.0788 16.1012 19.6801 14.4371 19.6801 12.6625C19.6801 9.60479 17.9078 7.02414 15.5034 6.25012C16.1494 4.6439 17.4784 3.53915 19.0178 3.53915C21.1912 3.53915 22.953 5.73556 22.953 8.44448C22.953 10.4832 21.9553 12.2302 20.5355 12.9711L20.6691 13.6834C21.7927 14.9909 26.2545 15.0762 26.2545 20.2427H21.8262Z" fill="black"/>
</svg>
