<svg width="28" height="28" viewBox="0 0 28 28" fill="none" xmlns="http://www.w3.org/2000/svg">
<g clip-path="url(#clip0)">
<path d="M27.5081 11.0062L24.0047 8.1508V3.5843C24.0047 3.07007 23.5862 2.65165 23.072 2.65165H20.8676C20.3533 2.65165 19.9349 3.07007 19.9349 3.5843V4.83379L15.2536 1.01849C14.915 0.742598 14.4687 0.590576 13.9969 0.590576C13.527 0.590576 13.0828 0.741665 12.7461 1.01612L0.491644 11.0061C-0.0651478 11.4598 -0.031742 11.8549 0.037698 12.0501C0.106968 12.2449 0.330041 12.5716 1.0453 12.5716H2.7233V25.709C2.7233 26.6466 3.48401 27.4092 4.41903 27.4092H9.71817C10.6453 27.4092 11.3715 26.6624 11.3715 25.709V20.3216C11.3715 19.8599 11.7959 19.4394 12.2618 19.4394H15.8228C16.2669 19.4394 16.6283 19.8352 16.6283 20.3216V25.709C16.6283 26.6307 17.4242 27.4092 18.3664 27.4092H23.5807C24.5158 27.4092 25.2765 26.6465 25.2765 25.709V12.5716H26.9545C27.6697 12.5716 27.8927 12.2449 27.9621 12.0501C28.0315 11.8549 28.0649 11.4598 27.5081 11.0062Z" fill="#1877F2"/>
</g>
<defs>
<clipPath id="clip0">
<rect width="28" height="28" fill="white"/>
</clipPath>
</defs>
</svg>
